:FULLY-SPECIFIED
:FORCE-ALL-JOINTS-BE-3DOF
:DEGREES
2344
root 0.676706 14.0754 -18.4184 -163.875 -50.5431 170.455
lfemur -1.41444 -6.35614 1.80345
ltibia 30.2582 0 0
lfoot -12.0032 27.1082 0.00887133
ltoes -47.348 0 0
rfemur -69.1585 -13.4755 11.98
rtibia 79.2088 0 0
rfoot -10.0638 -16.7189 0.0436147
rtoes 6.37371 0 0
lowerback 19.9626 3.53701 -3.75767
upperback 0.456948 3.59662 -0.743355
thorax -10.9242 1.8011 0.293051
lowerneck -5.14461 -3.58517 -5.78381
upperneck 2.16344 -4.45732 1.15721
head 1.78861 -2.24525 1.26817
lclavicle -1.27491e-13 4.25641e-15 -1.36575e-30
lhumerus -42.6326 -17.8545 88.9636
lradius 100.405 0 0
lwrist 54.1859 0 0
lhand -23.4006 43.1972 -0.0212954
lfingers 7.12502 0 0
lthumb 3.05667 73.1389 -0.0175613
rclavicle -1.27491e-13 4.25641e-15 -1.36575e-30
rhumerus 51.2271 10.1233 -46.9062
rradius 45.2944 0 0
rwrist 7.69985 0 0
rhand -7.22744 -37.7833 -0.0297873
rfingers 7.12502 0 0
rthumb 18.6523 -66.9171 -0.0290401
2345
root 0.670473 14.1003 -18.5749 -163.697 -51.2229 170.31
lfemur -1.67067 -6.2799 1.77849
ltibia 30.5275 0 0
lfoot -11.941 27.0586 0.00892827
ltoes -47.2163 0 0
rfemur -69.0525 -13.3683 12.0119
rtibia 79.1959 0 0
rfoot -10.1091 -16.846 0.0470775
rtoes 6.32636 0 0
lowerback 19.9824 3.5275 -3.70434
upperback 0.456769 3.59771 -0.733135
thorax -10.9338 1.79916 0.273276
lowerneck -5.16175 -3.50496 -5.72307
upperneck 2.18814 -4.35058 1.08042
head 1.79687 -2.19219 1.24056
lclavicle -1.27417e-13 4.31577e-15 -1.44037e-30
lhumerus -42.2067 -18.069 88.9168
lradius 100.454 0 0
lwrist 53.7815 0 0
lhand -23.492 43.1712 -0.0224815
lfingers 7.12502 0 0
lthumb 2.96848 73.1126 -0.0184813
rclavicle -1.27417e-13 4.31577e-15 -1.44037e-30
rhumerus 51.0947 10.4066 -46.8669
rradius 45.5831 0 0
rwrist 7.52675 0 0
rhand -7.16403 -37.7838 -0.031759
rfingers 7.12502 0 0
rthumb 18.7133 -66.912 -0.0309039
2346
root 0.664239 14.1253 -18.7313 -163.542 -51.7968 170.178
lfemur -1.87861 -6.20889 1.74117
ltibia 30.7615 0 0
lfoot -11.8946 27.0231 0.0083324
ltoes -47.1003 0 0
rfemur -68.9631 -13.2819 12.038
rtibia 79.1834 0 0
rfoot -10.148 -16.9312 0.0502009
rtoes 6.28304 0 0
lowerback 19.9904 3.51935 -3.66638
upperback 0.454051 3.59705 -0.725108
thorax -10.94 1.79722 0.260516
lowerneck -5.17218 -3.44193 -5.6746
upperneck 2.21232 -4.26699 1.02086
head 1.80527 -2.15073 1.21895
lclavicle -1.2723e-13 4.34651e-15 -1.47747e-30
lhumerus -41.857 -18.2622 88.8894
lradius 100.498 0 0
lwrist 53.4337 0 0
lhand -23.5636 43.1554 -0.0229018
lfingers 7.12502 0 0
lthumb 2.89935 73.0963 -0.018719
rclavicle -1.2723e-13 4.34651e-15 -1.47747e-30
rhumerus 50.9748 10.639 -46.8417
rradius 45.813 0 0
rwrist 7.39566 0 0
rhand -7.1188 -37.7881 -0.0330428
rfingers 7.12502 0 0
rthumb 18.7568 -66.9121 -0.0320475
2347
root 0.658006 14.1502 -18.8878 -163.405 -52.2921 170.053
lfemur -2.04877 -6.13992 1.69039
ltibia 30.971 0 0
lfoot -11.8614 26.9996 0.00704839
ltoes -46.9944 0 0
rfemur -68.8861 -13.2118 12.0595
rtibia 79.1708 0 0
rfoot -10.1825 -16.9791 0.0531779
rtoes 6.24178 0 0
lowerback 19.9874 3.51218 -3.64173
upperback 0.448749 3.59468 -0.718871
thorax -10.9431 1.7952 0.254028
lowerneck -5.17659 -3.39292 -5.63596
upperneck 2.23711 -4.20239 0.975529
head 1.81417 -2.11879 1.20225
lclavicle -1.26926e-13 4.35074e-15 -1.47974e-30
lhumerus -41.5662 -18.4433 88.88
lradius 100.539 0 0
lwrist 53.1264 0 0
lhand -23.6191 43.1489 -0.0225712
lfingers 7.12502 0 0
lthumb 2.84579 73.0889 -0.0182801
rclavicle -1.26926e-13 4.35074e-15 -1.47974e-30
rhumerus 50.8621 10.8318 -46.8291
rradius 45.9954 0 0
rwrist 7.29977 0 0
rhand -7.08931 -37.7963 -0.03371
rfingers 7.12502 0 0
rthumb 18.7851 -66.917 -0.0325345
2348
root 0.651773 14.1751 -19.0443 -163.277 -52.7364 169.931
lfemur -2.19126 -6.0699 1.62498
ltibia 31.167 0 0
lfoot -11.839 26.9864 0.00505455
ltoes -46.8934 0 0
rfemur -68.8171 -13.1538 12.0777
rtibia 79.1577 0 0
rfoot -10.2144 -16.9947 0.0561823
rtoes 6.20062 0 0
lowerback 19.974 3.50561 -3.62834
upperback 0.440819 3.59062 -0.714019
thorax -10.9436 1.793 0.253072
lowerneck -5.17563 -3.35477 -5.60474
upperneck 2.26358 -4.15255 0.941365
head 1.82393 -2.09427 1.18936
lclavicle -1.26499e-13 4.33061e-15 -1.44998e-30
lhumerus -41.3178 -18.621 88.887
lradius 100.579 0 0
lwrist 52.8432 0 0
lhand -23.662 43.1506 -0.0215155
lfingers 7.12502 0 0
lthumb 2.80433 73.0895 -0.0171812
rclavicle -1.26499e-13 4.33061e-15 -1.44998e-30
rhumerus 50.751 10.9963 -46.8274
rradius 46.1421 0 0
rwrist 7.23241 0 0
rhand -7.07313 -37.8084 -0.0338348
rfingers 7.12502 0 0
rthumb 18.8006 -66.9268 -0.0324321
2349
root 0.64554 14.2001 -19.2007 -163.153 -53.1571 169.805
lfemur -2.31631 -5.99567 1.54366
ltibia 31.3605 0 0
lfoot -11.8251 26.9815 0.00233848
ltoes -46.7918 0 0
rfemur -68.7519 -13.1037 12.0939
rtibia 79.1433 0 0
rfoot -10.2455 -16.9828 0.0593748
rtoes 6.15761 0 0
lowerback 19.951 3.49926 -3.62416
upperback 0.430218 3.58488 -0.710149
thorax -10.9417 1.79055 0.256906
lowerneck -5.16995 -3.32431 -5.57852
upperneck 2.29278 -4.11325 0.915347
head 1.8349 -2.07508 1.17921
lclavicle -1.25945e-13 4.28821e-15 -1.39117e-30
lhumerus -41.0948 -18.8043 88.909
lradius 100.62 0 0
lwrist 52.5675 0 0
lhand -23.696 43.1596 -0.0197683
lfingers 7.12502 0 0
lthumb 2.77147 73.097 -0.0154458
rclavicle -1.25945e-13 4.28821e-15 -1.39117e-30
rhumerus 50.6359 11.1439 -46.8352
rradius 46.2643 0 0
rwrist 7.18673 0 0
rhand -7.06781 -37.8244 -0.0334928
rfingers 7.12502 0 0
rthumb 18.8056 -66.9412 -0.0318104
2350
root 0.639307 14.225 -19.3572 -163.024 -53.5815 169.669
lfemur -2.43426 -5.91416 1.44527
ltibia 31.5624 0 0
lfoot -11.8172 26.983 -0.00110651
ltoes -46.6843 0 0
rfemur -68.6862 -13.0572 12.1093
rtibia 79.1273 0 0
rfoot -10.2776 -16.9481 0.062912
rtoes 6.11079 0 0
lowerback 19.9189 3.49274 -3.62713
upperback 0.416902 3.5775 -0.706855
thorax -10.9378 1.78777 0.264788
lowerneck -5.16017 -3.29838 -5.5549
upperneck 2.32576 -4.08028 0.894455
head 1.84744 -2.05913 1.17068
lclavicle -1.25259e-13 4.22567e-15 -1.30637e-30
lhumerus -40.8798 -19.002 88.9437
lradius 100.663 0 0
lwrist 52.2831 0 0
lhand -23.7247 43.1749 -0.0173672
lfingers 7.12502 0 0
lthumb 2.74375 73.1106 -0.0131016
rclavicle -1.25259e-13 4.22567e-15 -1.30637e-30
rhumerus 50.5115 11.2858 -46.8511
rradius 46.3734 0 0
rwrist 7.15597 0 0
rhand -7.07092 -37.8446 -0.0327609
rfingers 7.12502 0 0
rthumb 18.8025 -66.9601 -0.030741
2351
root 0.633073 14.2499 -19.5137 -162.882 -54.0371 169.516
lfemur -2.55538 -5.82229 1.3285
ltibia 31.7836 0 0
lfoot -11.8128 26.9889 -0.00528411
ltoes -46.5655 0 0
rfemur -68.6158 -13.01 12.1252
rtibia 79.109 0 0
rfoot -10.3126 -16.8955 0.0669451
rtoes 6.05821 0 0
lowerback 19.8785 3.48565 -3.6352
upperback 0.400828 3.56848 -0.703733
thorax -10.9323 1.78458 0.275976
lowerneck -5.14693 -3.27381 -5.53145
upperneck 2.36354 -4.04942 0.875673
head 1.8619 -2.04432 1.16271
lclavicle -1.24436e-13 4.14511e-15 -1.19875e-30
lhumerus -40.6559 -19.2228 88.9892
lradius 100.711 0 0
lwrist 51.9735 0 0
lhand -23.7517 43.1957 -0.014351
lfingers 7.12502 0 0
lthumb 2.71767 73.1292 -0.0101776
rclavicle -1.24436e-13 4.14511e-15 -1.19875e-30
rhumerus 50.3723 11.4333 -46.8737
rradius 46.481 0 0
rwrist 7.13336 0 0
rhand -7.08 -37.8689 -0.0317163
rfingers 7.12502 0 0
rthumb 18.7937 -66.9833 -0.0292961
2352
root 0.62684 14.2749 -19.6701 -162.717 -54.551 169.337
lfemur -2.68999 -5.71702 1.19202
ltibia 32.0353 0 0
lfoot -11.8096 26.9975 -0.010197
ltoes -46.4299 0 0
rfemur -68.5364 -12.958 12.143
rtibia 79.0879 0 0
rfoot -10.3524 -16.8298 0.0716259
rtoes 5.9979 0 0
lowerback 19.8304 3.47761 -3.64632
upperback 0.38195 3.55786 -0.700378
thorax -10.9256 1.78088 0.289728
lowerneck -5.13084 -3.24743 -5.50578
upperneck 2.40716 -4.01646 0.855994
head 1.87863 -2.02855 1.15421
lclavicle -1.23472e-13 4.04866e-15 -1.07158e-30
lhumerus -40.4057 -19.4757 89.0431
lradius 100.766 0 0
lwrist 51.6222 0 0
lhand -23.7806 43.2208 -0.0107578
lfingers 7.12502 0 0
lthumb 2.68976 73.1519 -0.00670231
rclavicle -1.23472e-13 4.04866e-15 -1.07158e-30
rhumerus 50.2127 11.5979 -46.9018
rradius 46.5985 0 0
rwrist 7.11214 0 0
rhand -7.09263 -37.8974 -0.0304353
rfingers 7.12502 0 0
rthumb 18.7814 -67.0108 -0.0275474
2353
root 0.620607 14.2998 -19.8266 -162.518 -55.1505 169.123
lfemur -2.84845 -5.59539 1.03446
ltibia 32.3282 0 0
lfoot -11.8052 27.0067 -0.0158481
ltoes -46.2722 0 0
rfemur -68.4436 -12.8967 12.1639
rtibia 79.0634 0 0
rfoot -10.3986 -16.7559 0.0771067
rtoes 5.92792 0 0
lowerback 19.7754 3.46823 -3.65843
upperback 0.360227 3.54565 -0.696384
thorax -10.918 1.7766 0.305304
lowerneck -5.11254 -3.21607 -5.47547
upperneck 2.45762 -3.97716 0.832418
head 1.89798 -2.00974 1.14407
lclavicle -1.22362e-13 3.93842e-15 -9.2816e-31
lhumerus -40.1122 -19.7694 89.1027
lradius 100.831 0 0
lwrist 51.2129 0 0
lhand -23.815 43.2494 -0.00662342
lfingers 7.12502 0 0
lthumb 2.65653 73.1776 -0.00270238
rclavicle -1.22362e-13 3.93842e-15 -9.2816e-31
rhumerus 50.0273 11.7907 -46.9342
rradius 46.7373 0 0
rwrist 7.08553 0 0
rhand -7.10636 -37.9302 -0.028993
rfingers 7.12502 0 0
rthumb 18.768 -67.0424 -0.0255654
2354
root 0.614374 14.3247 -19.9831 -162.273 -55.8628 168.863
lfemur -3.04112 -5.45453 0.854364
ltibia 32.6733 0 0
lfoot -11.797 27.0146 -0.0222407
ltoes -46.0872 0 0
rfemur -68.3332 -12.822 12.1894
rtibia 79.0351 0 0
rfoot -10.4532 -16.6784 0.0835397
rtoes 5.84631 0 0
lowerback 19.714 3.45712 -3.66948
upperback 0.335612 3.53188 -0.691345
thorax -10.9098 1.77165 0.32196
lowerneck -5.09262 -3.17657 -5.4381
upperneck 2.51595 -3.92729 0.801956
head 1.9203 -1.98578 1.13123
lclavicle -1.21101e-13 3.81653e-15 -7.71877e-31
lhumerus -39.7577 -20.1127 89.1652
lradius 100.906 0 0
lwrist 50.7293 0 0
lhand -23.8585 43.2805 -0.0019803
lfingers 7.12502 0 0
lthumb 2.61451 73.2054 0.00179835
rclavicle -1.21101e-13 3.81653e-15 -7.71877e-31
rhumerus 49.8105 12.0231 -46.9699
rradius 46.9089 0 0
rwrist 7.04679 0 0
rhand -7.11875 -37.9674 -0.0274622
rfingers 7.12502 0 0
rthumb 18.7559 -67.0778 -0.0234183
